<svg xmlns="http://www.w3.org/2000/svg" xmlns:xlink="http://www.w3.org/1999/xlink" viewBox="0 0 365.5 103.74"><defs><style>.cls-1{fill:none;}.cls-2{clip-path:url(#clip-path);}.cls-3{fill:#104a52;}.cls-4{clip-path:url(#clip-path-2);}.cls-5{fill:#55b43b;}.cls-6{fill:#3e891f;}.cls-7{clip-path:url(#clip-path-3);}</style><clipPath id="clip-path" transform="translate(-0.03 -0.26)"><rect class="cls-1" x="21.07" width="80.27" height="104"/></clipPath><clipPath id="clip-path-2" transform="translate(-0.03 -0.26)"><rect class="cls-1" x="69.33" y="43.25" width="44.73" height="60"/></clipPath><clipPath id="clip-path-3" transform="translate(-0.03 -0.26)"><rect class="cls-1" y="27.25" width="69.33" height="66.67"/></clipPath></defs><g id="Layer_2" data-name="Layer 2"><g id="Layer_1-2" data-name="Layer 1"><g class="cls-2"><path class="cls-3" d="M100.4,19.84V56.23c0,25-15.36,38.73-38.56,47.56a3.05,3.05,0,0,1-1.08.21,3.15,3.15,0,0,1-1.09-.21C43.09,97.52,21.08,85.74,21.08,56.23V19.84a3,3,0,0,1,3.05-3c16.92,0,34.38-15.6,34.56-15.75a3,3,0,0,1,4.1,0c.19.15,17.67,15.75,34.57,15.75A3,3,0,0,1,100.4,19.84Z" transform="translate(-0.03 -0.26)"/></g><g class="cls-4"><path class="cls-5" d="M114.05,55.23V75.76c0,14.07-8.65,21.84-21.74,26.82a1.54,1.54,0,0,1-.61.1,1.57,1.57,0,0,1-.61-.1C81.76,99,69.35,92.38,69.35,75.76V55.23a1.71,1.71,0,0,1,1.72-1.71c9.55,0,19.39-8.8,19.49-8.88a1.74,1.74,0,0,1,2.3,0c.11.08,10,8.88,19.5,8.88A1.71,1.71,0,0,1,114.05,55.23Z" transform="translate(-0.03 -0.26)"/></g><path class="cls-6" d="M100.4,56.23c0,18.36-8.3,30.67-22,39.42-5.16-4.27-9.12-10.49-9.12-19.89V55.23a1.71,1.71,0,0,1,1.72-1.71c9.54,0,19.38-8.8,19.49-8.88a1.74,1.74,0,0,1,2.3,0,45.27,45.27,0,0,0,7.56,5.24Z" transform="translate(-0.03 -0.26)"/><g class="cls-7"><path class="cls-5" d="M1.72,75.77h14a1.78,1.78,0,0,0,1.69-1.28L26.2,46.67H22.82q5.26,14.49,10.52,29c.56,1.54,2.93,1.78,3.38,0l11.69-45.8H45q5.55,31.31,11.11,62.61a1.77,1.77,0,0,0,3.2.42q4.23-8.66,8.44-17.31c.7-1.43-2.18.2-.28.2H83a1.74,1.74,0,0,0,0-3.48H66.59a1.72,1.72,0,0,0-1.51.86q-4.38,9-8.77,18l3.21.41Q54,60.24,48.41,28.93c-.31-1.74-3-1.59-3.38,0Q39.2,51.82,33.34,74.73h3.38q-5.25-14.51-10.52-29a1.77,1.77,0,0,0-3.38,0L14.06,73.57l1.69-1.28h-14A1.74,1.74,0,0,0,1.72,75.77Z" transform="translate(-0.03 -0.26)"/></g><path class="cls-3" d="M129.78,101.79V98.38l3.31-5.5h-1.23l-2.66,4.44-2.63-4.44h-1.25l3.34,5.5v3.41Z" transform="translate(-0.03 -0.26)"/><path class="cls-3" d="M140.3,101.91c2.82,0,4.16-2.15,4.16-4.58s-1.34-4.57-4.16-4.57-4.14,2.14-4.14,4.57S137.49,101.91,140.3,101.91Zm0-1c-2,0-3.06-1.51-3.06-3.61s1.08-3.6,3.06-3.6,3.08,1.52,3.08,3.6S142.31,100.94,140.3,100.94Z" transform="translate(-0.03 -0.26)"/><path class="cls-3" d="M151.64,101.91c2.25,0,3.3-1.22,3.3-3.2V92.88h-1.08v5.83a2.23,2.23,0,1,1-4.46,0V92.88h-1.07v5.83C148.33,100.69,149.38,101.91,151.64,101.91Z" transform="translate(-0.03 -0.26)"/><path class="cls-3" d="M163.69,97.83a2.37,2.37,0,0,0,1.6-2.4c0-1.72-1.12-2.55-2.83-2.55h-3.31v8.91h1.07V98h2.43l1.58,3.76h1.18Zm-3.47-.75V93.85h2.11c1.2,0,1.9.58,1.9,1.61s-.68,1.62-1.9,1.62Z" transform="translate(-0.03 -0.26)"/><path class="cls-3" d="M178.16,101.79l2.19-7.16,2.18,7.16h1.22l2.64-8.91h-1.12l-2.2,7.38-2.21-7.38h-1l-2.2,7.37-2.2-7.37h-1.12l2.64,8.91Z" transform="translate(-0.03 -0.26)"/><path class="cls-3" d="M190.3,101.79l.78-2.18h4l.78,2.18H197l-3.29-8.91H192.5l-3.29,8.91ZM193.11,94l1.66,4.67h-3.32Z" transform="translate(-0.03 -0.26)"/><path class="cls-3" d="M204.1,101.79V98.38l3.31-5.5h-1.23l-2.66,4.44-2.63-4.44h-1.25l3.34,5.5v3.41Z" transform="translate(-0.03 -0.26)"/><path class="cls-3" d="M219.86,101.79V93.85h3v-1h-7.12v1h3v7.94Z" transform="translate(-0.03 -0.26)"/><path class="cls-3" d="M230.2,101.91c2.83,0,4.16-2.15,4.16-4.58s-1.33-4.57-4.16-4.57-4.14,2.14-4.14,4.57S227.4,101.91,230.2,101.91Zm0-1c-2,0-3.06-1.51-3.06-3.61s1.08-3.6,3.06-3.6,3.09,1.52,3.09,3.6S232.21,100.94,230.2,100.94Z" transform="translate(-0.03 -0.26)"/><path class="cls-3" d="M247.51,101.79a3.49,3.49,0,0,0,2.39-.78,2.3,2.3,0,0,0,.66-1.73,2,2,0,0,0-2-2.16,1.83,1.83,0,0,0,1.52-2,2.1,2.1,0,0,0-.6-1.58,3,3,0,0,0-2.15-.65H244v8.91Zm-2.42-7.94h2a2.12,2.12,0,0,1,1.52.46,1.23,1.23,0,0,1,.38,1c0,.93-.61,1.47-1.66,1.47h-2.28Zm0,3.86h2.54c.49,0,1.85,0,1.85,1.5a1.47,1.47,0,0,1-.43,1.15,2.46,2.46,0,0,1-1.66.47h-2.3Z" transform="translate(-0.03 -0.26)"/><path class="cls-3" d="M260.27,101.79v-1h-4.68v-3h4.13v-1h-4.13v-3h4.68v-1h-5.76v8.91Z" transform="translate(-0.03 -0.26)"/><path class="cls-3" d="M267.47,101.79V93.85h3v-1h-7.12v1h3v7.94Z" transform="translate(-0.03 -0.26)"/><path class="cls-3" d="M277.35,101.79V93.85h3v-1h-7.12v1h3v7.94Z" transform="translate(-0.03 -0.26)"/><path class="cls-3" d="M289.65,101.79v-1H285v-3h4.13v-1H285v-3h4.68v-1h-5.76v8.91Z" transform="translate(-0.03 -0.26)"/><path class="cls-3" d="M298.06,97.83a2.37,2.37,0,0,0,1.6-2.4c0-1.72-1.12-2.55-2.83-2.55h-3.31v8.91h1.07V98H297l1.58,3.76h1.18Zm-3.47-.75V93.85h2.11c1.2,0,1.9.58,1.9,1.61s-.68,1.62-1.9,1.62Z" transform="translate(-0.03 -0.26)"/><path class="cls-3" d="M310.44,101.79v-4h4.46v4H316V92.88H314.9v4h-4.46v-4h-1.08v8.91Z" transform="translate(-0.03 -0.26)"/><path class="cls-3" d="M326,101.79v-1h-4.69v-3h4.14v-1h-4.14v-3H326v-1h-5.76v8.91Z" transform="translate(-0.03 -0.26)"/><path class="cls-3" d="M330.22,101.79l.79-2.18h4l.78,2.18h1.09l-3.28-8.91h-1.22l-3.28,8.91ZM333,94l1.66,4.67h-3.32Z" transform="translate(-0.03 -0.26)"/><path class="cls-3" d="M345.51,101.79v-1h-4v-8h-1.08v8.91Z" transform="translate(-0.03 -0.26)"/><path class="cls-3" d="M352.37,101.79V93.85h3v-1h-7.12v1h3v7.94Z" transform="translate(-0.03 -0.26)"/><path class="cls-3" d="M360,101.79v-4h4.47v4h1.07V92.88h-1.07v4H360v-4h-1.08v8.91Z" transform="translate(-0.03 -0.26)"/><path class="cls-3" d="M140.75,44.36a15.52,15.52,0,0,1-5.71-1,11.5,11.5,0,0,1-4.33-2.91,13.62,13.62,0,0,1-2.8-4.73,19.55,19.55,0,0,1-1-6.42,19.45,19.45,0,0,1,1-6.39,13.35,13.35,0,0,1,2.8-4.73A11.64,11.64,0,0,1,135,15.26a15.32,15.32,0,0,1,5.71-1,14.68,14.68,0,0,1,4.85.73,11.45,11.45,0,0,1,3.69,2,11.09,11.09,0,0,1,2.62,3,14.79,14.79,0,0,1,1.59,3.87H147a7.69,7.69,0,0,0-.92-1.58A6.55,6.55,0,0,0,144.83,21a5.57,5.57,0,0,0-1.75-.83,7.83,7.83,0,0,0-2.33-.31,7.5,7.5,0,0,0-3,.6,6.38,6.38,0,0,0-2.38,1.75,8.4,8.4,0,0,0-1.56,3,13.42,13.42,0,0,0-.56,4.1,13.53,13.53,0,0,0,.56,4.13,8.67,8.67,0,0,0,1.56,3,6.38,6.38,0,0,0,2.38,1.75,7.67,7.67,0,0,0,3,.58,8.58,8.58,0,0,0,2.33-.29,5.37,5.37,0,0,0,1.75-.84,6,6,0,0,0,1.27-1.25,7.85,7.85,0,0,0,.92-1.6h6.48a14.71,14.71,0,0,1-1.59,3.9,11.24,11.24,0,0,1-6.31,5A15.54,15.54,0,0,1,140.75,44.36Z" transform="translate(-0.03 -0.26)"/><path class="cls-3" d="M163.76,44.36a9.43,9.43,0,0,1-3.25-.52,7.28,7.28,0,0,1-2.46-1.43,6,6,0,0,1-1.52-2.17,7.15,7.15,0,0,1-.52-2.77,6.75,6.75,0,0,1,.54-2.77,5.9,5.9,0,0,1,1.62-2.17,8.22,8.22,0,0,1,2.69-1.44,11.56,11.56,0,0,1,3.73-.54h5.23v-1a2.76,2.76,0,0,0-1-2.35,4.43,4.43,0,0,0-2.75-.77,4,4,0,0,0-2.13.54,2.82,2.82,0,0,0-1.2,1.33h-5.88a8.37,8.37,0,0,1,1-2.56,8.51,8.51,0,0,1,1.9-2.21A8.9,8.9,0,0,1,162.51,22a11,11,0,0,1,3.75-.59,10.26,10.26,0,0,1,6.91,2.13,7.71,7.71,0,0,1,2.5,6.23V44h-5l-.62-2.5h-.21a9.44,9.44,0,0,1-.83,1,6,6,0,0,1-1.27,1,7,7,0,0,1-1.73.7A8.46,8.46,0,0,1,163.76,44.36Zm1.46-4.81a4.77,4.77,0,0,0,3.31-1.14,3.87,3.87,0,0,0,1.29-3v-.62h-5a3.16,3.16,0,0,0-2.27.67,2.2,2.2,0,0,0-.67,1.64,2.27,2.27,0,0,0,.79,1.79A3.83,3.83,0,0,0,165.22,39.55Z" transform="translate(-0.03 -0.26)"/><path class="cls-3" d="M180.47,21.78h5l.65,2.5h.21a5.13,5.13,0,0,1,2.29-2,7.7,7.7,0,0,1,2.94-.54h2.7v5.65H192a5.67,5.67,0,0,0-4.16,1.46,5.31,5.31,0,0,0-1.48,4V44h-5.88Z" transform="translate(-0.03 -0.26)"/><path class="cls-3" d="M207.25,44.36a12.64,12.64,0,0,1-4.52-.77,9.19,9.19,0,0,1-3.42-2.23,9.9,9.9,0,0,1-2.19-3.6,14.79,14.79,0,0,1-.75-4.9,14.69,14.69,0,0,1,.75-4.89,9.73,9.73,0,0,1,2.19-3.58,9.11,9.11,0,0,1,3.42-2.25,12.42,12.42,0,0,1,4.52-.78,11.41,11.41,0,0,1,4.39.82A9.51,9.51,0,0,1,215,24.49a10.47,10.47,0,0,1,2.14,3.5,12.73,12.73,0,0,1,.75,4.46,8,8,0,0,1,0,.87c0,.28-.06.53-.08.75s-.06.48-.09.67H202.43a6.38,6.38,0,0,0,1.48,3.15,4.27,4.27,0,0,0,3.34,1.25,4.48,4.48,0,0,0,2.54-.57,5.4,5.4,0,0,0,1.44-1.52h6.27a10.86,10.86,0,0,1-1.15,2.73,9.19,9.19,0,0,1-2,2.36,9.35,9.35,0,0,1-3,1.62A12.7,12.7,0,0,1,207.25,44.36Zm4.6-14a6,6,0,0,0-.52-1.37,4.85,4.85,0,0,0-.92-1.21,4,4,0,0,0-1.35-.85,4.91,4.91,0,0,0-1.81-.32,4.45,4.45,0,0,0-3.19,1.09,5.94,5.94,0,0,0-1.63,2.66Z" transform="translate(-0.03 -0.26)"/><path class="cls-3" d="M219.59,14.66h6.48L230.67,35h.21l5-20.29h6.69l5,20.29h.21l4.6-20.29h6.5L251.17,44h-6.89l-5-20.29-5,20.29h-6.9Z" transform="translate(-0.03 -0.26)"/><path class="cls-3" d="M268.12,44.36a9.43,9.43,0,0,1-3.25-.52,7.28,7.28,0,0,1-2.46-1.43,6,6,0,0,1-1.52-2.17,7.15,7.15,0,0,1-.52-2.77,6.91,6.91,0,0,1,.54-2.77,5.82,5.82,0,0,1,1.63-2.17,8.17,8.17,0,0,1,2.68-1.44,11.6,11.6,0,0,1,3.73-.54h5.23v-1a2.76,2.76,0,0,0-1-2.35,4.43,4.43,0,0,0-2.75-.77,4,4,0,0,0-2.12.54,2.84,2.84,0,0,0-1.21,1.33H261.2a8.63,8.63,0,0,1,1-2.56,8.51,8.51,0,0,1,1.9-2.21A9,9,0,0,1,266.87,22a11,11,0,0,1,3.75-.59,10.3,10.3,0,0,1,6.92,2.13,7.74,7.74,0,0,1,2.5,6.23V44h-5l-.62-2.5h-.21a9.44,9.44,0,0,1-.83,1,6,6,0,0,1-1.27,1,7,7,0,0,1-1.73.7A8.46,8.46,0,0,1,268.12,44.36Zm1.46-4.81a4.77,4.77,0,0,0,3.31-1.14,3.87,3.87,0,0,0,1.29-3v-.62h-5a3.16,3.16,0,0,0-2.27.67,2.2,2.2,0,0,0-.67,1.64,2.27,2.27,0,0,0,.79,1.79A3.83,3.83,0,0,0,269.58,39.55Z" transform="translate(-0.03 -0.26)"/><path class="cls-3" d="M291.17,44l-9-22.17h6.47L294,36.22h.17l5.27-14.44H306L293.83,52.32h-6.06Z" transform="translate(-0.03 -0.26)"/><path class="cls-6" d="M127.73,54.32h7.75l5.79,17.07h.17l5.81-17.07H155V79h-5.27V61.53h-.17l-6,17.42h-4.4l-6-17.42H133V79h-5.27Z" transform="translate(-0.03 -0.26)"/><path class="cls-6" d="M167.81,79.3a10.8,10.8,0,0,1-3.79-.64,8.45,8.45,0,0,1-2.9-1.9,8.32,8.32,0,0,1-1.83-3,12.31,12.31,0,0,1-.62-4.1,12.46,12.46,0,0,1,.62-4.13,8.41,8.41,0,0,1,1.83-3,8.26,8.26,0,0,1,2.9-1.88,10.36,10.36,0,0,1,3.79-.66,9.48,9.48,0,0,1,3.69.69,7.92,7.92,0,0,1,2.83,1.93,8.7,8.7,0,0,1,1.82,3,11,11,0,0,1,.62,3.75c0,.25,0,.5,0,.73s0,.45-.06.65,0,.39-.07.56H163.77A5.13,5.13,0,0,0,165,73.86a3.62,3.62,0,0,0,2.83,1,3.77,3.77,0,0,0,2.13-.48,4.56,4.56,0,0,0,1.21-1.29h5.29a10.62,10.62,0,0,1-1,2.31,7.71,7.71,0,0,1-1.69,2,8.22,8.22,0,0,1-2.52,1.37A10.61,10.61,0,0,1,167.81,79.3Zm3.88-11.79a4.85,4.85,0,0,0-.46-1.15,4.15,4.15,0,0,0-.77-1,3.6,3.6,0,0,0-1.15-.73,4.21,4.21,0,0,0-1.5-.27,3.82,3.82,0,0,0-2.71.92,4.85,4.85,0,0,0-1.33,2.25Z" transform="translate(-0.03 -0.26)"/><path class="cls-6" d="M187.32,79.3a8.67,8.67,0,0,1-3.28-.6,7,7,0,0,1-2.56-1.86,8.69,8.69,0,0,1-1.66-3,15.07,15.07,0,0,1,0-8.35,8.78,8.78,0,0,1,1.66-3A7.09,7.09,0,0,1,184,60.57a8.48,8.48,0,0,1,3.28-.62,7,7,0,0,1,1.87.23,6.73,6.73,0,0,1,1.46.58,5.09,5.09,0,0,1,1.06.77,9.44,9.44,0,0,1,.71.71h.19V54.32h4.91V79h-4.23l-.52-2.11h-.16a8.74,8.74,0,0,1-.92.9,6.13,6.13,0,0,1-1.15.79,5.61,5.61,0,0,1-1.43.56A7,7,0,0,1,187.32,79.3Zm1.06-4.39a4.37,4.37,0,0,0,1.6-.3,3.39,3.39,0,0,0,1.36-1,4.66,4.66,0,0,0,.91-1.65,8,8,0,0,0,0-4.75,4.75,4.75,0,0,0-.91-1.65,3.21,3.21,0,0,0-1.36-1,4.19,4.19,0,0,0-1.6-.32,4.27,4.27,0,0,0-1.63.32,3.3,3.3,0,0,0-1.35,1,4.61,4.61,0,0,0-.92,1.65,8.71,8.71,0,0,0,0,4.75,4.52,4.52,0,0,0,.92,1.65,3.5,3.5,0,0,0,1.35,1A4.45,4.45,0,0,0,188.38,74.91Z" transform="translate(-0.03 -0.26)"/><path class="cls-6" d="M201.9,60.3h4.94V79H201.9Zm2.46-1.91a2.83,2.83,0,1,1,0-5.65,2.69,2.69,0,0,1,2,.81,2.87,2.87,0,0,1,0,4A2.7,2.7,0,0,1,204.36,58.39Z" transform="translate(-0.03 -0.26)"/><path class="cls-6" d="M219.32,79.3a10.81,10.81,0,0,1-3.8-.64,8,8,0,0,1-4.73-4.92,12.57,12.57,0,0,1-.62-4.1,12.72,12.72,0,0,1,.62-4.13,8.43,8.43,0,0,1,1.84-3,8.13,8.13,0,0,1,2.89-1.88,10.37,10.37,0,0,1,3.8-.66,9.75,9.75,0,0,1,3.43.56A7.46,7.46,0,0,1,225.27,62,7.35,7.35,0,0,1,227,64.14a11.1,11.1,0,0,1,1,2.5H223A4.54,4.54,0,0,0,221.63,65a3.77,3.77,0,0,0-2.31-.63,3.93,3.93,0,0,0-3.07,1.34,5.78,5.78,0,0,0-1.16,4,5.81,5.81,0,0,0,1.16,4,3.94,3.94,0,0,0,3.07,1.32,3.84,3.84,0,0,0,2.31-.61A4.45,4.45,0,0,0,223,72.61h4.94a10.94,10.94,0,0,1-1,2.55,7.79,7.79,0,0,1-1.69,2.12,7.46,7.46,0,0,1-2.52,1.48A10,10,0,0,1,219.32,79.3Z" transform="translate(-0.03 -0.26)"/><path class="cls-6" d="M236.54,79.3a7.82,7.82,0,0,1-2.73-.44,6.25,6.25,0,0,1-2.06-1.2,5.29,5.29,0,0,1-1.27-1.84,6.08,6.08,0,0,1-.44-2.33,5.71,5.71,0,0,1,.46-2.31,5.08,5.08,0,0,1,1.35-1.84,6.7,6.7,0,0,1,2.25-1.2,10,10,0,0,1,3.15-.44h4.4v-.88a2.36,2.36,0,0,0-.86-2,3.75,3.75,0,0,0-2.31-.64,3.36,3.36,0,0,0-1.81.46,2.32,2.32,0,0,0-1,1.12h-4.94a7.83,7.83,0,0,1,.85-2.17,7.28,7.28,0,0,1,1.59-1.83,7.72,7.72,0,0,1,2.33-1.31,8.9,8.9,0,0,1,3.15-.5,8.57,8.57,0,0,1,5.81,1.81,6.5,6.5,0,0,1,2.1,5.23V79h-4.23l-.52-2.11h-.16c-.2.25-.44.52-.71.82a5.09,5.09,0,0,1-1.06.81,5.87,5.87,0,0,1-1.46.6A7.06,7.06,0,0,1,236.54,79.3Zm1.23-4a4,4,0,0,0,2.79-1,3.29,3.29,0,0,0,1.09-2.56v-.52h-4.23a2.66,2.66,0,0,0-1.9.56,1.88,1.88,0,0,0-.56,1.36,2,2,0,0,0,.67,1.52A3.13,3.13,0,0,0,237.77,75.26Z" transform="translate(-0.03 -0.26)"/><path class="cls-6" d="M250.78,54.32h4.92V79h-4.92Z" transform="translate(-0.03 -0.26)"/><path class="cls-6" d="M279.09,79.3a13.22,13.22,0,0,1-4.79-.83A10.14,10.14,0,0,1,270.63,76a11.26,11.26,0,0,1-2.33-4,18.31,18.31,0,0,1,0-10.77,11.08,11.08,0,0,1,2.33-4,9.9,9.9,0,0,1,3.67-2.46,13,13,0,0,1,4.79-.85,12.7,12.7,0,0,1,4.08.6,9.63,9.63,0,0,1,5.3,4.21,12.82,12.82,0,0,1,1.33,3.27h-5.44a5.94,5.94,0,0,0-.77-1.33,5.42,5.42,0,0,0-1.08-1.06,4.52,4.52,0,0,0-1.46-.71,6.76,6.76,0,0,0-2-.25,6.4,6.4,0,0,0-2.54.5,5.54,5.54,0,0,0-2,1.48,6.87,6.87,0,0,0-1.31,2.48,13.28,13.28,0,0,0,0,6.93,7,7,0,0,0,1.31,2.48,5.43,5.43,0,0,0,2,1.48,6.39,6.39,0,0,0,2.54.48,6.76,6.76,0,0,0,2-.25,4.32,4.32,0,0,0,1.46-.71,5.61,5.61,0,0,0,1.08-1,6.42,6.42,0,0,0,.77-1.33h5.44a12.53,12.53,0,0,1-1.33,3.27A9.46,9.46,0,0,1,286.26,77a10,10,0,0,1-3.09,1.67A12.7,12.7,0,0,1,279.09,79.3Z" transform="translate(-0.03 -0.26)"/><path class="cls-6" d="M293.15,54.32h4.91V79h-4.91Z" transform="translate(-0.03 -0.26)"/><path class="cls-6" d="M302.45,60.3h4.94V79h-4.94Zm2.46-1.91a2.83,2.83,0,1,1,0-5.65,2.69,2.69,0,0,1,2,.81,2.83,2.83,0,0,1-2,4.84Z" transform="translate(-0.03 -0.26)"/><path class="cls-6" d="M311.59,60.3h4.23l.52,2.13h.19a5.88,5.88,0,0,1,2.17-1.84,6.08,6.08,0,0,1,2.75-.64,7.12,7.12,0,0,1,2.77.52,5.62,5.62,0,0,1,2.16,1.5,6.89,6.89,0,0,1,1.4,2.37,9.12,9.12,0,0,1,.52,3.17V79h-4.92V68.22a4.19,4.19,0,0,0-.89-2.86,3.12,3.12,0,0,0-2.46-1,3.22,3.22,0,0,0-2.54,1.09,4,4,0,0,0-1,2.79V79h-4.94Z" transform="translate(-0.03 -0.26)"/><path class="cls-6" d="M332.33,60.3h4.94V79h-4.94Zm2.46-1.91a2.83,2.83,0,1,1,0-5.65,2.69,2.69,0,0,1,2,.81,2.83,2.83,0,0,1-2,4.84Z" transform="translate(-0.03 -0.26)"/><path class="cls-6" d="M349.75,79.3a10.81,10.81,0,0,1-3.8-.64,8,8,0,0,1-4.73-4.92,12.57,12.57,0,0,1-.62-4.1,12.72,12.72,0,0,1,.62-4.13,8.43,8.43,0,0,1,1.84-3A8.13,8.13,0,0,1,346,60.61a10.37,10.37,0,0,1,3.8-.66,9.75,9.75,0,0,1,3.43.56A7.46,7.46,0,0,1,355.7,62a7.35,7.35,0,0,1,1.69,2.15,11.1,11.1,0,0,1,1,2.5h-4.94A4.54,4.54,0,0,0,352.06,65a3.77,3.77,0,0,0-2.31-.63,3.93,3.93,0,0,0-3.07,1.34,5.78,5.78,0,0,0-1.16,4,5.81,5.81,0,0,0,1.16,4,3.94,3.94,0,0,0,3.07,1.32,3.84,3.84,0,0,0,2.31-.61,4.45,4.45,0,0,0,1.37-1.69h4.94a10.94,10.94,0,0,1-1,2.55,7.79,7.79,0,0,1-1.69,2.12,7.46,7.46,0,0,1-2.52,1.48A10,10,0,0,1,349.75,79.3Z" transform="translate(-0.03 -0.26)"/></g></g></svg>