<svg xmlns="http://www.w3.org/2000/svg" xmlns:xlink="http://www.w3.org/1999/xlink" viewBox="0 0 114.02 103.74"><defs><style>.cls-1{fill:none;}.cls-2{clip-path:url(#clip-path);}.cls-3{fill:#104a52;}.cls-4{clip-path:url(#clip-path-2);}.cls-5{fill:#55b43b;}.cls-6{clip-path:url(#clip-path-3);}</style><clipPath id="clip-path" transform="translate(-0.03 -0.26)"><rect class="cls-1" x="21.07" width="80.27" height="104"/></clipPath><clipPath id="clip-path-2" transform="translate(-0.03 -0.26)"><rect class="cls-1" x="69.33" y="43.25" width="44.73" height="60"/></clipPath><clipPath id="clip-path-3" transform="translate(-0.03 -0.26)"><rect class="cls-1" y="27.25" width="69.33" height="66.67"/></clipPath></defs><g id="Layer_2" data-name="Layer 2"><g id="Layer_1-2" data-name="Layer 1"><g class="cls-2"><path class="cls-3" d="M100.4,19.84V56.23c0,25-15.36,38.73-38.56,47.56a3.05,3.05,0,0,1-1.08.21,3.15,3.15,0,0,1-1.09-.21C43.09,97.52,21.08,85.74,21.08,56.23V19.84a3,3,0,0,1,3.05-3c16.92,0,34.38-15.6,34.56-15.75a3,3,0,0,1,4.1,0c.19.15,17.67,15.75,34.57,15.75A3,3,0,0,1,100.4,19.84Z" transform="translate(-0.03 -0.26)"/></g><g class="cls-4"><path class="cls-5" d="M114.05,55.23V75.76c0,14.07-8.65,21.84-21.74,26.82a1.54,1.54,0,0,1-.61.1,1.57,1.57,0,0,1-.61-.1C81.76,99,69.35,92.38,69.35,75.76V55.23a1.71,1.71,0,0,1,1.72-1.71c9.55,0,19.39-8.8,19.49-8.88a1.74,1.74,0,0,1,2.3,0c.11.08,10,8.88,19.5,8.88A1.71,1.71,0,0,1,114.05,55.23Z" transform="translate(-0.03 -0.26)"/></g><g class="cls-6"><path class="cls-5" d="M1.72,75.77h14a1.78,1.78,0,0,0,1.69-1.28L26.2,46.67H22.82q5.26,14.49,10.52,29c.56,1.54,2.93,1.78,3.38,0l11.69-45.8H45q5.55,31.31,11.11,62.61a1.77,1.77,0,0,0,3.2.42q4.23-8.66,8.44-17.31c.7-1.43-2.18.2-.28.2H83a1.74,1.74,0,0,0,0-3.48H66.59a1.72,1.72,0,0,0-1.51.86q-4.38,9-8.77,18l3.21.41Q54,60.24,48.41,28.93c-.31-1.74-3-1.59-3.38,0Q39.2,51.82,33.34,74.73h3.38q-5.25-14.51-10.52-29a1.77,1.77,0,0,0-3.38,0L14.06,73.57l1.69-1.28h-14A1.74,1.74,0,0,0,1.72,75.77Z" transform="translate(-0.03 -0.26)"/></g></g></g></svg>